<svg height="166" viewBox="0 0 250 166" width="250" xmlns="http://www.w3.org/2000/svg" xmlns:xlink="http://www.w3.org/1999/xlink"><linearGradient id="a" x1="50.005266%" x2="50.005266%" y1="99.995579%" y2="-.010142%"><stop offset="0" stop-color="#808080" stop-opacity=".25"/><stop offset=".54" stop-color="#808080" stop-opacity=".12"/><stop offset="1" stop-color="#808080" stop-opacity=".1"/></linearGradient><g fill="none" fill-rule="evenodd"><path d="m0 0h250v166h-250z" fill="#e6ecfe"/><g fill-rule="nonzero" transform="translate(84)"><path d="m159.676141 80.1711502c-1.187401 1.4459146-2.65998 2.5222939-4.257925 3.3580455h-.001976c-.150308.0794931-.300709.1568377-.452993.2298854h-.001884l-.001975.0021485-.001883-.0021485h-.001882c.000007.0005815-.000201.0011406-.000574.0015466-.000374.0004061-.00088.0006237-.001402.0006019h-.001985l-.001881-.0021485c-.001883.0021485-.001883.0021485-.003855 0l-.001883.0021485-.001976-.0021485h-.001883c-.001976.0021485-.001976.0021485-.003856 0h-.001975c-1.069555.5156611-2.167998.9534344-3.288409 1.3105616-6.588415 2.0833715-13.513145 2.4865097-20.260434 1.1795054-.129133-.0257815-.25638-.0515631-.38551-.0773446v-17.4261723c.127247-.0601569.256377-.1203138.38551-.1783223.842359-.3888715 1.694978-.7462323 2.557856-1.0720823 1.24133-.4726616 2.500009-.8780047 3.776037-1.2160293 4.163091-1.123086 8.458632-1.5102316 12.729529-1.1472785.776854.0644538 1.551732.1575538 2.324635.2793 1.617238.2513807 3.313444.6896562 4.805411 1.4502116h.001883c.217885.1138685.431815.2320338.643865.3588038 1.32613.8013762 2.444072 1.903537 3.126431 3.4139055.245143.5424346.421602 1.1201456.524334 1.7166209v.0042969c.038495.2062523.065508.4146531.086684.6209054.242931 2.5437678-.703525 5.2658687-2.286034 7.1951873z" fill="#f2f2f2"/><path d="m161.817207 73.561126c-.018828.0047137-.038121.0072999-.05752.0077105-3.286406.1445715-6.568379.3591798-9.845917.643825h-.005714c-.013397.0019277-.024919.0019277-.038315.0038553-3.365096.2929982-6.723166.6598886-10.07421 1.100671-.141923.0192762-.282065.0385524-.422113.055901-2.317498.3103468-4.630592.6547482-6.939282 1.0332043-1.018747.1677029-2.035557.3424738-3.050431.5243126-.128528.0231314-.255179.0443352-.383705.0693943v-.5840688c.128526-.0250591.257051-.0462629.383705-.0693944 3.380457-.6014174 6.772405-1.1263726 10.175844-1.5748655.855661-.1156572 1.712595-.224889 2.570803-.3276954 2.478716-.3007087 4.961273-.5602948 7.44767-.7787584.182298-.015421.362628-.0308419.544924-.0462629 3.1828-.2717944 6.370096-.4780497 9.561888-.618766.015464-.0007098.030955.0005859.046089.0038552.306989.0269867.372188.4896155.086284.5570822z" fill="#fff"/><path d="m154.685684 83.3584618c-4.09752.0339734-8.134324-1.9263231-11.032642-5.1710502-.817768-.9190563-1.538406-1.9419158-2.1475-3.0481201-.195359-.3534931-.652378.036324-.458695.3867863 2.250905 4.0729167 6.000297 6.9742938 10.13408 8.0410925 1.173909.300111 2.374782.445092 3.578393.4320185.367439-.0030482.291318-.6437556-.073636-.6407292z" fill="#fff"/><path d="m137 66c-.037384.1297254-.13295.2272827-.251005.2562358-.982033.2905754-1.930816.7091075-2.827238 1.2471656-1.309096.7807533-2.497813 1.7953528-3.520149 3.0045351-.054217.0612245-.106384.122449-.156585.1859411-.08442.0997732-.164721.201814-.245023.3061224v-.9886621c.128541-.154195.263063-.3061225.401608-.4512472.807217-.8727632 1.701425-1.636758 2.664669-2.276644 1.293169-.4988662 2.60441-.9266818 3.933723-1.2834467z" fill="#fff"/><path d="m157.592548 67.0294571c-2.750422 1.3270316-5.051793 3.6047895-6.56916 6.5017558-.063939.1725072.007666.3706528.160596.444401.153673.0681611.327942-.0111982.395881-.1802783 1.448272-2.7361415 3.633237-4.8852428 6.239815-6.137394.357668-.1715328.131265-.8003516-.227116-.6284776z" fill="#fff"/><path d="m165.704542 48.7181289c-.445926 1.8947754-1.301083 3.6112442-2.363821 5.1773341l-.00197.0021483c-.098063.1460824-.199871.2943132-.305543.4360991v.0021482c-.737871 1.0161231-1.534592 1.9770323-2.385028 2.8765355-3.057021 3.2564659-6.510057 6.0141366-10.256866 8.1913589-5.894258 3.4415308-12.482274 5.4759438-19.006947 5.5919505-.049923.0021482-.099935.0021482-.149863.0021482-.078826.0021483-.15765.0021483-.234504.0021483v-9.7638936c.1249-.2663856.253648-.5327713.384367-.7970087 1.69562-3.4104762 3.76332-6.5725491 6.155695-9.4137253.057617-.070893.117206-.1417859.176794-.2105306.899359-1.0612461 1.842323-2.0716497 2.828892-3.031211 3.795313-3.7302092 8.181445-6.6337781 12.93204-8.5608616 1.531744-.6144056 3.211389-1.1063597 4.84495-1.203032.24023-.0150379.478582-.0214827.718811-.0193344 1.504814.023631 2.948069.4210612 4.179995 1.4049695.441128.3541715.836856.7741103 1.176188 1.2481457.119082.1654169.228687.3351303.334351.5091403v.0021483c1.272277 2.1267887 1.568248 5.0248068.972459 7.5533223z" fill="#f2f2f2"/><path d="m164.9163 41.5288425v.0021315c-.014299.0137653-.02982.0259052-.046327.0362356-2.859908 1.8352256-5.683712 3.7372384-8.471411 5.7060382-.003864.0021315-.005756.004263-.009625.0063946-.011164.0085857-.02279.0164157-.034814.0234465-2.865665 2.0249295-5.690728 4.1180672-8.475187 6.279413-.115957.0895232-.233812.1811779-.35165.2728326-1.922709 1.4984478-3.825413 3.0288682-5.708111 4.5912612-3.555568 2.9542656-7.033137 6.0179484-10.432708 9.1910485-.129453.1193643-.257016.24086-.386467.3623558v-.8291553c.127563-.1214958.257014-.2429916.386467-.3623559 1.302437-1.2128262 2.616417-2.4086003 3.941939-3.5873224.396184-.3516983.794162-.7033966 1.192234-1.0508319 3.536224-3.1056024 7.151643-6.0953931 10.846255-8.969372h.001888c.726605-.5648487 1.454437-1.124724 2.183497-1.6796257 2.071504-1.5730505 4.166185-3.1084444 6.284045-4.6061818.152567-.1087067.30721-.2174134.46176-.3261202 2.711114-1.9098282 5.457612-3.7571324 8.239492-5.5419123.013573-.009098.027807-.0169404.042554-.0234466.289842-.1278903.562237.2941477.336169.5051666z" fill="#fff"/><path d="m162.535565 53.4089926c-3.634664 2.1413185-8.040885 2.5147201-11.96507 1.1828889-1.108687-.3788702-2.173857-.8981895-3.174206-1.5475712-.320315-.2071421-.565888.3678479-.248326.5732133 3.69055 2.3866805 8.230447 2.980905 12.353121 1.779459 1.169579-.343659 2.298943-.8363021 3.365313-1.4679917.325934-.1920191-.007103-.7107222-.330832-.5200069z" fill="#fff"/><path d="m135.206922 61.7228977c-.181746-1.1201578-.244085-2.2597104-.18576-3.3956753.131386-2.590712.854451-5.1035901 2.102689-7.307503.913859-1.0566968 1.871081-2.06327 2.871664-3.0197194.019235.1272676-.024239.2562159-.114332.3391195-.728145.7290387-1.376867 1.5481545-1.933198 2.4409719-1.987219 3.1818877-2.762837 7.0895654-2.161482 10.8898595.019779.0876421-.003397.1802629-.061192.244541-.084877.0811141-.202608.1067367-.309281.0673108s-.186272-.1379806-.209108-.258905z" fill="#fff"/><path d="m158.419122 38.1143853c-2.062818 2.4421591-3.260638 5.4531369-3.419122 8.5946978.01614.1741808.175132.3034604.356585.2899471.179643-.0185063.312481-.1693287.301765-.3426203.164343-2.9745447 1.307653-5.82208 3.265059-8.131979.268719-.3167223-.235032-.7274001-.504287-.4100456z" fill="#fff"/><path d="m137.941896 44.9126997v.0021068c-.013929.1811983-.029904.3602686-.047925.5393495v.0042137c-.138678 1.2747295-.355249 2.5386568-.648358 3.7838736-.139588.6109818-.291262 1.21775-.456753 1.8245182-.019969.0779528-.041983.1559057-.0639.2317517v.0021068c-.48724 1.7647054-1.069362 3.4986348-1.743534 5.1933455-1.240474 3.1201535-2.77572 6.100247-4.582436 8.8950527-.129654.2043629-.2633.4087257-.39899.6109818v-32.9930186c.133646-.0084273.265342-.0084273.39899-.0042136.063802 0 .12764.0021068.191514.0063205.5629.0312373 1.118902.1454121 1.651871.3392108.187513.0653118.368987.139051.54861.2212175 2.176422 1.0070666 3.886158 3.2276695 4.628221 5.66949.55659 1.8287213.668317 3.7522606.52269 5.6736931z" fill="#f2f2f2"/><path d="m132.987593 33.3402976c-.005016.0197257-.012948.0386896-.023565.0563355-.86483 1.5834411-1.710474 3.174918-2.536931 4.7744308-.143063.2756413-.286123.5532947-.427097.8289361v-1.368147c.140975-.2736375.28334-.5472669.427097-.8208883.63856-1.2192604 1.287755-2.4331556 1.947586-3.6416854.007257-.0141087.015842-.0275758.025652-.0402397.196447-.2655814.683293-.0845032.587258.211258z" fill="#fff"/><path d="m137.961465 45.4127518c-.035649.0676867-.071393.1353627-.111111.2030599-.582548 1.0823905-1.275862 2.0925802-2.067234 3.012055-1.519937 1.7581394-3.350348 3.1792073-5.386335 4.1817647-.130971.0676866-.263878.1311428-.396785.1903686v-.6874423c.132907-.0634563.265814-.1290277.396785-.1967143 2.947165-1.4987655 5.395224-3.9206409 7.017163-6.94211.047351-.0872863.127891-.1483773.22076-.1674502s.188931.0057485.263305.0680355c.050551.0358703.085647.0917026.09755.1551882.011902.0634857-.000365.1294119-.034098.1832449z" fill="#fff"/><path d="m131 6.96330275v16.03669725h-.389302v-.1709174h-130.22139637v.1709174h-.38930163v-16.03669725c.00348084-3.84416185 2.87733141-6.95952938 6.42347697-6.96330275h118.15304603c3.546146.00377337 6.419996 3.1191409 6.423477 6.96330275z" fill="#6c63ff"/><path d="m124.576523 0h-118.15304603c-3.54614556.00379108-6.41999613 3.1337873-6.42347697 6.996v92.008c.00348084 3.862213 2.87733141 6.992209 6.42347697 6.996h118.15304603c3.546146-.003791 6.419996-3.133787 6.423477-6.996v-92.008c-.003481-3.8622127-2.877331-6.99220892-6.423477-6.996zm6.034175 99.004c-.004251 3.627696-2.703354 6.56737-6.034175 6.572h-118.15304603c-3.33082105-.004629-6.0299254-2.944304-6.03417534-6.572v-92.008c.00424994-3.62769636 2.70335429-6.56737127 6.03417534-6.572h118.15304603c3.330821.0046299 6.029924 2.94430412 6.034175 6.572z" fill="#3f3d56"/><circle cx="26" cy="12" fill="#fff" r="4"/><circle cx="104" cy="12" fill="#fff" r="4"/><path d="m38.246126 59h-23.492252c-2.0722345-.00252-3.751528-1.8071375-3.753874-4.034022v-11.931956c.002346-2.2268845 1.6816395-4.031502 3.753874-4.034022h23.492252c2.0722345.00252 3.751528 1.8071375 3.753874 4.034022v11.931956c-.002346 2.2268845-1.6816395 4.031502-3.753874 4.034022z" fill="#6c63ff"/><path d="m77.2461277 59h-23.4922554c-2.0722339-.0025211-3.7515263-1.8071383-3.7538723-4.034022v-11.931956c.002346-2.2268837 1.6816384-4.0315009 3.7538723-4.034022h23.4922554c2.0722339.0025211 3.7515263 1.8071383 3.7538723 4.034022v11.931956c-.002346 2.2268837-1.6816384 4.0315009-3.7538723 4.034022z" fill="#6c63ff"/><g fill="#fff"><path d="m77.1605559 90h-23.3211059c-2.1194809-.0025508-3.8370649-1.8393976-3.83945-4.1060478v-11.7879044c.0023841-2.2666507 1.7199686-4.1034982 3.83945-4.1060478h23.3211059c2.1194791.0025531 3.83706 1.8393996 3.8394441 4.1060478v11.7879044c-.0023841 2.2666482-1.719965 4.1034947-3.8394441 4.1060478z"/><path d="m38.1605497 90h-23.3211073c-2.119478-.0025554-3.8370573-1.8394009-3.8394424-4.1060478v-11.7879044c.0023841-2.2666474 1.719964-4.1034936 3.8394424-4.1060478h23.3211073c2.1194808.0025496 3.8370652 1.8393959 3.8394503 4.1060457v11.7879044c-.0023841 2.266651-1.7199684 4.1034991-3.8394503 4.1060499z"/><path d="m116.160549 90h-23.3211005c-2.1194809-.0025508-3.8370644-1.839398-3.8394485-4.1060478v-11.7879044c.0023841-2.2666498 1.7199676-4.103497 3.8394485-4.1060478h23.3211005c2.119481.0025496 3.837066 1.8393959 3.839451 4.1060457v11.7879044c-.002384 2.266651-1.719969 4.1034991-3.839451 4.1060499z"/><path d="m116.160549 59h-23.3211005c-2.1194801-.0025508-3.8370634-1.8393967-3.8394485-4.1060457v-11.7879065c.0023841-2.2666498 1.7199676-4.103497 3.8394485-4.1060478h23.3211005c2.119482.0025508 3.837066 1.8393976 3.839451 4.1060478v11.7879044c-.002384 2.2666507-1.719969 4.1034982-3.839451 4.1060478z"/><ellipse cx="26.5" cy="49" rx="6.5" ry="7"/></g><path d="m25.9575261 51c-.1297192.0002745-.2559994-.0475566-.3597911-.1362805l-.0064336-.005502-1.3549597-1.1829138c-.1709598-.1490547-.2591314-.3908377-.2312628-.6341659.0278685-.2433283.1675374-.4511831.3663337-.5451765.1987962-.0939934.4264759-.0598259.5971747.0896172l.8776415.7673536 2.0740037-3.0841823c.0971436-.1444705.2406413-.2390188.398923-.2628437.1582816-.023825.3183804.0250252.4450739.1358033l-.0128942.0199704.0132248-.019675c.26348.2309056.3133202.66143.1114117.9623852l-2.4395261 3.6277387c-.114362.1694366-.2914129.2684645-.4789195.2678713z" fill="#6c63ff"/><ellipse cx="65.5" cy="49" fill="#fff" rx="6.5" ry="7"/><path d="m64.9572506 51c-.1297312.0002749-.2560233-.0475554-.3598254-.1362785l-.0064342-.0055021-1.3550844-1.1829144c-.2639277-.2305662-.3139493-.6614204-.1117265-.9623399.2022229-.3009195.5801126-.3579521.8440404-.1273859l.8777192.767354 2.0741918-3.084186c.0971536-.1444695.2406647-.2390168.3989606-.2628413.158296-.0238245.3184092.0250255.4451146.1358028l-.0128953.0199705.013226-.019673c.2635055.2309038.3133504.6614296.1114217.9623837l-2.4397455 3.6277406c-.1143728.169436-.2914396.2684632-.478963.2678695z" fill="#6c63ff"/><path d="m108.435881 81.2323436c.429929-.5053513.62954-1.1894476.545121-1.8682121-.08442-.6787644-.444197-1.2824723-.982523-1.6486775l-3.609151-20.715454-4.389328 1.7496017 4.927882 19.8124628c-.523877 1.0356276-.244363 2.3287715.65062 3.0100305.894984.6812591 2.122547.5352979 2.857379-.3397514z" fill="#a0616a"/><path d="m74.4221586 50.2320513c.0106169.1298308.0120417.2603936.004261.3904744l8.2979694 7.1263957 2.3531435-1.0782289 1.9224675 3.7500204-3.9995472 2.3605282c-.6637004.3917157-1.479457.2475623-2.0022129-.3538137l-8.2942675-9.5416748c-.8989512.2262297-1.8295643-.1918353-2.3372689-1.0499854s-.4865585-1.9773159.0531093-2.8108258c.5396678-.83351 1.4852452-1.2074363 2.3748523-.9391296s1.5376103 1.122859 1.6274837 2.1462395z" fill="#a0616a"/><path d="m93.9993368 117h-2.7099198l-1.289417-8 4 .000215z" fill="#a0616a"/><path d="m93.9998462 120-7.9998462-.000276v-.094412c0-.770548.328047-1.509537.9119979-2.054392s1.3759593-.85092 2.2017842-.85092h.0002023l4.8860156.000189z" fill="#2f2e41"/><path d="m102.999337 117h-2.70992l-1.289417-8 4 .000215z" fill="#a0616a"/><path d="m102.999846 120-7.999846-.000276v-.094412c0-.770548.328047-1.509537.9119979-2.054392s1.3759593-.85092 2.2017842-.85092h.0002023l4.8860156.000189z" fill="#2f2e41"/><path d="m90.0357371 115.958142c-.4645283.000461-.8529308-.377639-.8961653-.872395l-2.1395718-30.7823807.1011109-.0087833 14.7238391-1.294583.003961.1119258 1.170457 31.8880442c.009162.261751-.081647.516219-.251533.704856-.169886.188636-.404219.295174-.649082.295174h-2.8869587c-.4455637.002266-.8250227-.345959-.89069-.817385l-3.9204632-25.7599389c-.0079548-.0551657-.0541792-.0945495-.1062223-.090503s-.0924575.0501668-.0928712.1059832l-.1778252 25.4339967c-.003826.509869-.3778026.928566-.8537748.95587l-3.085854.128662c-.0161836.001039-.0323672.001457-.0483565.001457z" fill="#2f2e41"/><circle cx="93" cy="41" fill="#a0616a" r="5"/><path d="m93.6865145 86c-2.0934531-.00678-4.1767712-.3157755-6.1951286-.9188545-.4003841-.126479-.6639063-.5406787-.6310108-.991812.6447882-10.5166233.7963883-18.6778241-.5594931-24.3245811-.5778942-2.4066752-.3155249-4.9413825.7197946-6.9541438 1.5581079-3.0290652 4.4219254-4.8726661 7.4766842-4.8090119.14598.0029967.2934102.0086458.4422906.0169474 4.6359345.2590609 8.2483726 4.8104573 8.0527646 10.1459611l-.932489 25.4312915c-.006966.3794186-.223557.7170427-.549025.8558225-2.5014383 1.0212609-5.1517918 1.5457437-7.8243875 1.5483808z" fill="#3f3d56"/><path d="m87.6620473 62.5488074-3.4207632-4.8010035c-.1969435-.2764179-.2790836-.6373283-.2250163-.9886853.0540674-.351357.2389869-.6583592.5065723-.841008l4.6337777-3.1624199c1.2763894-1.1795366 3.1454857-.9535399 4.1786887.5052548 1.0332031 1.4587947.8407737 3.6001087-.4302093 4.7872788l-3.6215118 4.5515395c-.2098892.2636253-.509572.409559-.8209572.3997738-.3113852-.0097851-.6036304-.17432-.8005827-.4507302z" fill="#3f3d56"/><path d="m98.4594185 61.8892159c-.29017-.1503474-.5093671-.4396639-.6003578-.7924074l-1.5714357-6.0879602c-.7102834-1.7552462-.0599121-3.8451266 1.4539437-4.6720515s3.3200283-.0789007 4.0378043 1.6722524l3.03896 5.3151711c.175478.3069612.226895.6871768.140854 1.0415709-.086042.3543941-.30102.6478646-.588916.8039394l-5.0004861 2.7107374c-.2878852.1562629-.6202818.159457-.9103664.0087479z" fill="#3f3d56"/><path d="m95.3211954 44.9243687-3.6586031-.9238419c-.3773831-.095294-.8307778-.2771071-.8831148-.7002956-.0703345-.5686936.6714922-.9648744.6030687-1.5338517-.0662813-.5511016-.7420377-.6221281-1.2238918-.7848039-.9329547-.3610258-1.4375743-1.4740133-1.1398942-2.5141477-.521354.8105412-1.7124558.8799627-2.3886724.2232802s-.8059195-1.8481338-.3998279-2.735304c.4449748-.8838476 1.2456574-1.4802513 2.1550511-1.6052308.9014971-.1127796 1.8129586.0746848 2.6170608.5382628.0535829-.6281672.7644784-.8828315 1.3363567-.8884361 2.4351689.0313093 4.58467 1.7621506 5.3540982 4.3112768.7017381 2.4946135.2323433 5.2291327-1.7310743 6.6887232z" fill="#2f2e41"/><path d="m130.804178 120.212389h-74.6083555c-.1081498 0-.1958225-.09509-.1958225-.212389s.0876727-.212389.1958225-.212389h74.6083555c.108149 0 .195822.09509.195822.212389s-.087673.212389-.195822.212389z" fill="#3f3d56"/></g><g transform="translate(6 78)"><path d="m27.6662197.0956851c9.8716944 1.35125451 17.8868734 10.7474092 26.7809516 16.6109834 1.9817692 1.3066727 4.0590709 2.4573089 6.2552576 2.7980416 7.2753326 1.1294067 13.9838389-6.6968301 21.2931387-6.0578237 5.9240781.5179986 10.9480275 6.7934241 13.0794643 14.174904s1.8045033 15.6376131.6209614 23.3863625c-1.853331 12.1007867-5.9591067 24.005201-13.1060011 31.8760197-1.179296 1.2992424-2.4965834 2.5146284-4.0113047 2.8097178-2.5241816.4978306-4.8647285-1.6410365-7.049239-3.4094497-9.8589567-7.9843963-22.322767-10.0118088-33.330237-5.4220017-3.7278915 1.5539958-7.2933777 3.8213011-11.1083099 4.9400931-7.3464513 2.1505434-15.6599041-.5668263-20.64776342-8.0671911-4.98785936-7.5003648-5.79882436-19.8283066-1.0466119-27.5982855 1.98389213-3.2427985 4.71824532-5.5323947 6.80085442-8.6616157 5.2330595-7.8548966 3.3011795-15.796834 2.6536813-25.0082925-.637945-9.07665151 7.0481775-13.16013629 12.8151577-12.3714622z" fill="#6c63ff" fill-rule="nonzero" opacity=".1"/><g opacity=".2" transform="translate(67.338755 57.850405)"><path d="m5.20015386 0s2.9201109 2.9201109 1.27376702 7.25304171c-1.64634387 4.33293079 2.82563985 11.53820629 2.82563985 11.53820629l-.13692996-.0222909c-5.99731972-1.0614726-8.97687308-7.9175236-5.64172643-13.01259164 1.23767696-1.89048255 2.2556291-4.113206 1.67924952-5.75636546z" fill="#6c63ff" fill-rule="nonzero"/><path d="m5.20015386.05307363s2.9201109 2.92011089 1.27376702 7.25304171c-1.64634387 4.33293086 2.82563985 11.53820626 2.82563985 11.53820626l-.13692996-.0222909c-5.99731972-1.0614725-8.97687308-7.9175235-5.64172643-13.01259161 1.23767696-1.89578992 2.2556291-4.1174519 1.67924952-5.75636546z" fill="#000" fill-rule="nonzero" opacity=".1"/><path d="m5.20015386 0s1.64846682 3.57928533 0 6.49939622c-1.64846682 2.9201109-.28235169 11.11467878 4.09728392 12.29185178" stroke="#535461"/><path d="m0 11.8141891s3.33196223-.5307362 3.63554337 2.455186c.30358114 2.9859221 6.40704813 3.396712 6.40704813 3.396712l-.11463904.076426c-5.03987152 3.3086099-9.8568338 2.107023-9.12866365-2.2853503.26855254-1.6293603.24626162-3.2703968-.79928881-3.6429737z" fill="#6c63ff" fill-rule="nonzero"/><path d="m0 11.8141891s2.58680853.5678878 2.37345255 2.9190494c-.21335598 2.3511617 3.84040757 5.1704327 7.66913895 2.936033" stroke="#535461"/></g><g opacity=".2" transform="translate(33.583929 53.252106)"><path d="m4.32125462 0s2.42652617 2.42652618 1.06147252 6.02597948c-1.36505366 3.59945331 2.34797721 9.58721982 2.34797721 9.58721982l-.11357756-.0191065c-4.982552-.8799608-7.45896738-6.58112965-4.68852411-10.81215911 1.02538245-1.57416374 1.87137604-3.42006445 1.39265194-4.78193369z" fill="#6c63ff" fill-rule="nonzero"/><path d="m4.32125462.04033596s2.42652617 2.42652617 1.06147252 6.02597948c-1.36505366 3.5994533 2.34797721 9.58721976 2.34797721 9.58721976l-.11888493-.0159221c-4.98255199-.8799607-7.45896738-6.58112958-4.68852411-10.81215904 1.03068982-1.57734816 1.87668341-3.42324886 1.39795931-4.7851181z" fill="#000" fill-rule="nonzero" opacity=".1"/><path d="m4.32125462 0s1.36929955 2.97212305 0 5.3997107c-1.36929955 2.42758764-.23458543 9.2348109 3.40414236 10.2134886" stroke="#535461"/><path d="m0 9.81331342s2.77150474-.43838814 3.02095078 2.04015018c.24944605 2.4785383 5.32328468 2.8288243 5.32328468 2.8288243l-.09553253.0636883c-4.18750908 2.7492138-8.19032194 1.7514297-7.58634408-1.8989743.2239707-1.3618693.20592567-2.7290459-.66235885-3.03368848z" fill="#6c63ff" fill-rule="nonzero"/><path d="m0 9.81331342s2.14842038.47129378 1.97221594 2.42546468 3.19078639 4.2968408 6.3688351 2.4413868" stroke="#535461"/></g><g opacity=".2" transform="translate(23.393793 37.966902)"><path d="m4.32125462 0s2.42652617 2.42652618 1.06147252 6.02597948c-1.36505366 3.59945331 2.34797721 9.58721982 2.34797721 9.58721982l-.11357756-.0191065c-4.982552-.8799608-7.45896738-6.58112965-4.68852411-10.81215911 1.02538245-1.57416374 1.87137604-3.42006445 1.39265194-4.78193369z" fill="#6c63ff" fill-rule="nonzero"/><path d="m4.32125462.04033596s2.42652617 2.42652617 1.06147252 6.02597948c-1.36505366 3.5994533 2.34797721 9.58721976 2.34797721 9.58721976l-.11888493-.0159221c-4.98255199-.8799607-7.45896738-6.58112958-4.68852411-10.81215904 1.03068982-1.57734816 1.87668341-3.42324886 1.39795931-4.7851181z" fill="#000" fill-rule="nonzero" opacity=".1"/><path d="m4.32125462 0s1.36929955 2.97212305 0 5.3997107c-1.36929955 2.42758764-.23458543 9.2348109 3.40414236 10.2134886" stroke="#535461"/><path d="m0 9.81331342s2.77150474-.43838814 3.02095078 2.04015018c.24944605 2.4785383 5.32328468 2.8288243 5.32328468 2.8288243l-.09553253.0636883c-4.18750908 2.7492138-8.19032194 1.7514297-7.58634408-1.8989743.2239707-1.3618693.20592567-2.7290459-.66235885-3.03368848z" fill="#6c63ff" fill-rule="nonzero"/><path d="m0 9.81331342s2.14842038.47129378 1.97221594 2.42546468 3.19078639 4.2968408 6.3688351 2.4413868" stroke="#535461"/></g><g fill-rule="nonzero"><path d="m1.56673344 62.8796616v-1.4467871l29.64586596-8.3145142 5.3020552-.6029164v1.3257792l-29.52485807 10.6041104z" fill="#dfe5ee"/><path d="m1.56673344 62.8796616v-1.4467871l29.64586596-8.3145142 5.3020552-.6029164v1.3257792l-29.52485807 10.6041104z" fill="#000" opacity=".05"/><path d="m1.56673344 61.4328745 29.64586596-9.7613012 5.1821088.8438706-29.40491167 10.4841641z" fill="#dfe5ee"/><path d="m6.145926 39.379722h1.928696v22.415115h-1.928696z" fill="#dfe5ee"/><path d="m29.283904 34.197613h1.928696v19.64361h-1.928696z" fill="#dfe5ee"/><path d="m36.0327461 28.0516868v6.0259795l-24.0731352 5.3774197-2.84793081.6368836-7.06303813 1.5773481-2.04864196-.6029164v-6.988735l10.9236137-2.0826091 2.7184311-.5179986 19.8601508-3.7862725z" fill="#dfe5ee"/><path d="m36.0327461 28.0516868v6.0259795l-24.0731352 5.3774197-2.84793081.6368836-7.06303813 1.5773481-2.04864196-.6029164v-6.988735l10.9236137-2.0826091 2.7184311-.5179986 19.8601508-3.7862725z" fill="#000" opacity=".05"/><path d="m8.07462144 39.3797215v1.1846033l-1.92869556.4309579v-1.6155612z" fill="#000" opacity=".05"/><path d="m31.2125994 34.1976127v1.1984024l-1.9286956.4298964v-1.6282988z" fill="#000" opacity=".05"/><path d="m36.0327461 28.0516868v6.0259795l-9.774039 2.1834489-2.8426234.6347606-11.4564728 2.5592102-2.84793081.6368836-7.06303813 1.5773481.12100787-6.8687886 9.81543637-1.9562939 2.7460294-.5466583h.0010615l11.220826-2.2365226 2.740722-.5466584z" fill="#dfe5ee"/><path d="m14.7321771 32.2975769-2.7725662 7.1575091-2.84793081.6368836 2.87340611-7.2477344-1.0614725-.849178 2.7184311-.5179986 1.0890708.8205183z" fill="#6c63ff"/><path d="m28.8317165 29.6184202-2.5730094 6.642695-2.8426234.6347606 2.6685419-6.7307972-.1316225-.1040243-.92985-.7451537 2.7184311-.5179986.9521409.7164939.1369299.1040243z" fill="#6c63ff"/><path d="m6.56839194 61.4031533 1.92763409-.4521873v.4521873l-1.92763409.4521873z" fill="#000" opacity=".05"/><path d="m29.585362 53.4495397 1.9276341-.4521873v.4521873l-1.9276341.4521873z" fill="#000" opacity=".05"/><path d="m70.0285264 36.9935313c-3.0729629 1.6187456-6.2541961-.2122945-6.2541961-.2122945-.0498761.0934995-.1070174.1829381-.170897.267491-.0392745-.0297212-.0796105-.0605039-.1199464-.0934095-1.3204719-1.0795176-2.7821195-3.6281131-2.7821195-3.6281131l-2.8479308-5.3402682c-.3489055-.6417727-.6119274-1.3266288-.7823052-2.0369658-.4691709-2.0359043-1.9669086-2.122945-1.9669086-2.122945h-1.7546141c-.849178 0-2.0762402.1783274-3.2905648.424589.0322172-.0330938.0533592-.0753779.060504-.1210079l-.058381.0116762.6517441-.6368835s1.8650072-.7557684 2.084732-2.374514l.9871695-.9712474s.0318441-.0849178.076426-.2345854l.327995-.4129128c1.428742-1.7885812 1.5317048-1.8183024 1.5317048-1.8183024l4.3318694-2.5634562s1.5550572-.2207862.9064975-4.5696392c-.6485597-4.34885286-.2122945-4.88277353-.2122945-4.88277353s1.1782345-4.35734469-1.080579-3.81493223c-2.2588135.54241245-1.237677 4.26711952-1.237677 4.26711952l.157098.8226412c.1969364 1.03023454.1861099 2.08942809-.0318442 3.11542184-.2345854 1.1092388-.4967692 2.4795998-.4309579 2.8065333.1157005.5700108-1.1888492 1.2918121-1.1888492 1.2918121l-.7377234.4309578c-.7810083.4559059-1.7009559.6128138-2.5889314.4415726l-.0392745-.0594425-.4415726-.3311794c-.0131549.0453738-.0237859.0914415-.0318442.1379914l-.1804503-.1379914v.0106147c0-.038213 0-.074303.0084918-.114639.0518269-.4082237.1475599-.8096618.2855361-1.197341.0116762-.0360901.0265368-.0743031.0392745-.1061472 1.7123811-.1038283 3.0514767-1.5166993 3.0634097-3.2321839.0001346-.34048772-.0543384-.67879365-.1613439-1.00203002.0834947.01552404.1691358.01552404.2526305 0 .3969907-.06368835.8183953-.26749107 1.024321-.61883848.222516-.39432671.1895664-.8831484-.0838564-1.24404579-.0506237-.0645481-.107513-.12392626-.1698356-.17726591-.3768227-.42458901-1.0073374-.53073626-1.5083524-.81627236-.4766012-.26855255-.8385633-.69738745-1.2822588-1.01689068-.8385633-.6061008-1.9106505-.78867408-2.93391-.95532526-.4394497-.07111866-.8863296-.14223732-1.3279022-.08385633-.5583345.07430308-1.0720872.35347035-1.5094139.70269481-.1550757.11142881-.2849213.25429516-.3810686.41928164-.1624053.31844176-.0912867.69208008-.1199464 1.04448896-.0700572.85766979-.7430308 1.55611871-1.4860615 2.01149042-.4564332.27916727-.9553253.5020765-1.3385169.8767763s-.6092852.96594-.3704539 1.4393567c.1263152.2505075.3757613.4596176.3778842.7430308-.0083238.1246464-.0446032.2458196-.1061472.3545318-.2549694.5323044-.5992692 1.0169809-1.0179522 1.4329879-1.5497498-.3736383-3.2226305.4479414-3.2226305.4479414l-5.0473019.2122945s-1.426619-.6474982-3.2905648 3.3457614c-1.8639457 3.9932596-2.5241816 4.2098-2.5241816 4.2098s-3.3967121 3.0220123-1.2068943 3.7777807 3.3967121-2.9148035 3.3967121-2.9148035l1.215386-2.2588136s2.742845-2.5910544 2.9625698-3.1302824c.2197248-.5392281 1.5359508-.5392281 1.5359508-.5392281l5.3508829.2122945c.0070486.0432013.0113033.0868122.0127377.1305612.0127377.5986705-.5487813 1.0614725-1.1134847 1.2833202-.3566547.1422374-.7642602.2494461-.9818621.561519-.2176018.3120729-.1655897.7653217.0530737 1.0837634.0666792.0951371.1447466.1817597.2324624.2579379.2294973.2366108.5096804.4180765.8194568.5307362.2568993.1023747.5242036.1764084.7971659.2207863-.1110099.4581428-.2619628.9056738-.4511258 1.3374554l.2122945.0912866-.0700572.1868192c-.2993353.7950429-.9160508 2.3638993-1.4616477 3.3128557-.0053073 0-.9914153.8364404-1.756737 1.5922088-.5848713.5753181-1.9945068 6.1140817 2.1303754 6.2138601l.9415261.694203h.0191065c.8375018 1.1824804 3.6026377 3.1249751 3.6026377 3.1249751l-4.8902039.2887205c-.243911.0148261-.4867152.0442462-.7271087.0881023-.0799642.0141529-.1599285.030075-.2398927.0477662-.8619157.1889421-1.8161795.1220694-2.3278093.0615654-.3386097-.6368835-1.9106505-.3778842-1.9106505-.3778842s-.2197248 3.2385527.1061472 5.0727772c.3258721 1.8342245 1.5359508.6474982 1.5359508.6474982-.2197248-1.6187456 1.5922088-2.8097177 1.5922088-2.8097177.2303395-.1157005.5031379-.2558149.8237026-.424589 1.0168907-.5455969 5.854021.2887205 7.3496357.5647033.3293152.0613117.6639066.0897573.9988457.0849178 4.2872875-.0700572 3.1738028-2.161158 3.1738028-2.161158l-.8629771-1.698356c-.1415821-.2823763-.2677291-.572231-.3778843-.8682846-.7621372-2.0167977-1.9467406-3.127098-2.8542996-3.7215226.0488278-.0615654.0976555-.1231308.1454218-.1878806 0 0-.0721802-.0169836-.1815118-.0498893.7663831-.3916833 1.273767-.7048177 1.273767-.7048177s5.0473018-3.0220123 4.8286385-2.2662438c-.2186634.7557684 1.0975626 3.6695105 3.5113511 5.7202754.0700571.0594424.1379914.1199464.2059256.1815118l.0658113.0605039.134807.1273767.0732416.0711187.1252538.1252537.0700572.0721802.132684.1422373.0530737.0573195c.0601501.0665189.1195925.1337455.1783274.2016798l.038213.0456433c.0452895.0537813.0902251.1075625.134807.1613438l.0605039.0753646.1061473.1358684.0615654.0796105.1061472.1390529.0551966.0732416.1231308.1708971.0297212.0403359c.0502431.0707648.0994246.1415297.1475447.2122945l.0360901.0541351.1061472.1602824.0445819.0689957.094471.1486061.0413975.0658113.0987169.1624053.0286598.0467048c.0856254.1415297.167005.2830593.2441386.424589l.0127377.0233524.1008399.1825733.0159221.0297212.096594.1825733.0063688.0127377c.2720704.5195138.5155114 1.053525.7292316 1.599639-.1233146.0296849-.2485024.0509632-.3746998.0636884-.6581129 2.9148035 1.0975626 2.9148035 1.0975626 2.9148035s6.4749824-.9712473 8.8887709-3.4540315c2.4137885-2.4827843-.4330808-2.2757971-.4330808-2.2757971z" fill="url(#a)"/><path d="m46.5455699 31.4728127s2.6685419.6920801 3.9996284 4.2692425c.1068533.2893815.229097.5728452.3662081.849178l.8353788 1.6750036s1.0773946 2.0560723-3.0697785 2.1229451c-.3239813.0046205-.6476017-.023474-.96594-.0838564-1.446787-.2706755-6.1257579-1.0911937-7.1118658-.5551501-.5510885.3121718-1.1179655.5956103-1.6983561.849178l-1.1676197-1.273767.424589-1.698356s1.4022052.2632452 2.6133453-.0074303c.3076659-.0693821.6203772-.1141058.9351573-.1337456l4.7331059-.2812902s-3.7151538-2.6536813-3.7151538-3.6090066c0-.9553252 3.8213011-2.122945 3.8213011-2.122945z" fill="#f8bdc5"/><path d="m38.584526 37.9477951s-1.1676198 1.9042817 1.2196319 2.2290923c0 0-1.7503681 1.1676197-1.5380736 2.7598285 0 0-1.1676198 1.1676198-1.4860616-.6368835-.3184417-1.8045033-.1061472-4.9889208-.1061472-4.9889208s1.9106505-.3184418 1.9106505.6368835z" fill="#000" opacity=".05"/><path d="m46.5455699 31.4728127s2.6685419.6920801 3.9996284 4.2692425c.1068533.2893815.229097.5728452.3662081.849178l.8353788 1.6750036s1.0773946 2.0560723-3.0697785 2.1229451c-.3239813.0046205-.6476017-.023474-.96594-.0838564-1.446787-.2706755-6.1257579-1.0911937-7.1118658-.5551501-.5510885.3121718-1.1179655.5956103-1.6983561.849178l-1.1676197-1.273767.424589-1.698356s1.4022052.2632452 2.6133453-.0074303c.3076659-.0693821.6203772-.1141058.9351573-.1337456l4.7331059-.2812902s-3.7151538-2.6536813-3.7151538-3.6090066c0-.9553252 3.8213011-2.122945 3.8213011-2.122945z" fill="#000" opacity=".05"/><path d="m38.2660843 39.5400038.424589-1.698356s1.4022052.2632452 2.6133453-.0074303c.3076659-.069382.6203772-.1141058.9351573-.1337455l4.730983-.2834132s-3.7151538-2.6536813-3.7151538-3.6090065c0-.9553253 3.8213011-2.1229451 3.8213011-2.1229451l.0286597.0084918c-.1797353-.0896213-.3669012-.1634932-.559396-.2207863 0 0-3.8213011 1.1676198-3.8213011 2.122945 0 .9553253 3.7151538 3.6090066 3.7151538 3.6090066l-4.7299215.2834132c-.31478.0196397-.6274913.0643635-.9351573.1337455-1.2111401.2706755-2.6133453.0074303-2.6133453.0074303l-.424589 1.698356 1.1676197 1.2737671s.078549-.0318442.2398928-.1061473z" fill="#000" opacity=".05"/><path d="m38.584526 37.9477951s-1.1676198 1.9042817 1.2196319 2.2290923c0 0-1.7503681 1.1676197-1.5380736 2.7598285 0 0-1.1676198 1.1676198-1.4860616-.6368835-.3184417-1.8045033-.1061472-4.9889208-.1061472-4.9889208s1.9106505-.3184418 1.9106505.6368835z" fill="#ffd97b"/><path d="m35.4277067 68.7177604v-1.446787l29.645866-8.3145143 5.3020552-.6029164v1.3257792l-29.5248581 10.6041105z" fill="#dfe5ee"/><path d="m35.4277067 68.7177604v-1.446787l29.645866-8.3145143 5.3020552-.6029164v1.3257792l-29.5248581 10.6041105z" fill="#000" opacity=".05"/><path d="m35.4277067 67.2709734 29.645866-9.7613013 5.1821088.8438706-29.4049117 10.4841641z" fill="#dfe5ee"/><path d="m40.006899 45.21782h1.928696v22.415115h-1.928696z" fill="#dfe5ee"/><path d="m63.144877 40.035712h1.928696v19.64361h-1.928696z" fill="#dfe5ee"/><path d="m69.8937194 33.8897856v6.0259795l-24.0731352 5.3774198-2.8479308.6368835-7.0630381 1.5773482-2.048642-.6029164v-6.9887351l10.9225522-2.0826091 2.7194926-.5179985 19.8601508-3.7862725z" fill="#dfe5ee"/><path d="m69.8937194 33.8897856v6.0259795l-24.0731352 5.3774198-2.8479308.6368835-7.0630381 1.5773482-2.048642-.6029164v-6.9887351l10.9225522-2.0826091 2.7194926-.5179985 19.8601508-3.7862725z" fill="#000" opacity=".05"/><path d="m41.9355948 45.2178203v1.1846034l-1.9286956.4309578v-1.6155612z" fill="#000" opacity=".05"/><path d="m65.0735727 40.0357115v1.1984025l-1.9286956.4298964v-1.6282989z" fill="#000" opacity=".05"/><path d="m69.8937194 33.8897856v6.0259795l-9.774039 2.183449-2.8426234.6347606-11.4564728 2.5592102-2.8479308.6368835-7.0630381 1.5773482.1210078-6.8687887 9.8154364-1.9562938 2.7460294-.5466584h.0010615l11.220826-2.2365226 2.740722-.5466583z" fill="#dfe5ee"/><path d="m48.5931504 38.1356757-2.7725662 7.1575092-2.8479308.6368835 2.8734061-7.2477343-1.062534-.8491781 2.7194926-.5179985 1.0890708.8205182z" fill="#6c63ff"/><path d="m62.6926898 35.4565191-2.5730094 6.642695-2.8426234.6347606 2.668542-6.7307973-.1316226-.1040243-.92985-.7451537 2.7184312-.5179986.9521408.716494.13693.1040243z" fill="#6c63ff"/><path d="m40.4293652 67.2412521 1.9276341-.4521873v.4521873l-1.9276341.4521873z" fill="#000" opacity=".05"/><path d="m63.4463353 59.2876386 1.9276341-.4521873v.4521873l-1.9276341.4511258z" fill="#000" opacity=".05"/><path d="m59.7216283 15.5931839-4.1906935 2.5209972s-.0997785.0297212-1.4860616 1.7885812l-.4978306.6368835c-1.0529807 1.3533774-3.241737 1.8045033-3.241737 1.8045033l-1.3884061-2.1356827-.2929664-2.5942389.307827-1.0476733.2441387-.8300716 2.1356827.3057041.8597927.4638635 1.0614726-1.0614725c.0827948.0222909.1666511.0424589.2505075.058381.8591377.1694353 1.7505846.0163891 2.5040136-.4298964l.7133096-.424589s1.2610293-.7101251 1.1495747-1.273767c-.0636883-.3184418.1900036-1.6686348.4171587-2.7598286.2107814-1.00926682.2212403-2.05011092.0307827-3.06340964l-.1517906-.80884206s-.9861079-3.66420313 1.197341-4.19493939c2.183449-.53073626 1.0455505 3.75124388 1.0455505 3.75124388s-.4182202.52436742.2122945 4.80104021c.6305146 4.2766728-.8799607 4.4932132-.8799607 4.4932132z" fill="#f8bdc5"/><path d="m52.8135651 15.0242346c-.1188849 1.1230379.4192817 1.273767.4192817 1.273767l.3184417 1.273767v1.3799143l-.9553253 1.5922088h-2.3352395l-2.0167978-.9553253v-4.4581846l-.3184417-1.0614725c.1782238-.0114373.355512-.0344847.5307362-.0689957 1.024321-.2048642 1.6049465-.7738135 1.93188-1.3915905.5095068-.9670014.4033596-2.046519.4033596-2.046519s4.24589-1.16761975 2.7598285 2.1229451c-.1974339.4383881-.348163.8237026-.4617405 1.1676197-.1330886.3797888-.2255983.7725995-.2759829 1.1718657z" fill="#f8bdc5"/><path d="m50.1110561 24.3429018c-.0069503.0470636-.0289163.0906233-.0626269.1241923-.0552068.0641177-.1012862.1355586-.13693.2122945-.4967691.9372802-1.4552788 4.2458901-1.4552788 4.2458901l-5.2012153-1.9106506-.0753646-.0191065-2.0475804-.5116297c.5806254-.4150358 1.5508113-2.9041888 1.9456791-3.9720302.1061472-.2982738.1772659-.4861544.1772659-.4861544l5.5196571.5307363s1.4308649 1.2525375 1.3363939 1.7864582z" fill="#f8bdc5"/><path d="m47.9254842 13.7462217s-1.5922088.6368835-3.1844176 0-3.5028593.3184417-3.5028593.3184417l-4.8827736.2122945s-1.3799142-.6368835-3.1844175 3.2905648-2.4413868 4.1397429-2.4413868 4.1397429-3.2905648 2.972123-1.1676198 3.7151538c2.122945.7430307 3.2905648-2.8659758 3.2905648-2.8659758l1.1676198-2.2290923s2.6536813-2.5475341 2.8659758-3.0782703c.2122945-.5307363 1.4860615-.5307363 1.4860615-.5307363l5.3073626.2122945-.0329057 1.5518728 1.6251145 1.4202503 1.4860615-1.273767 1.1676198-2.3352396z" fill="#f8bdc5"/><path d="m53.5512885 12.6847492c-.1974339.4383881-.348163.8237026-.4617405 1.1676215-.0573196 0-.116762 0-.175143 0-.9910791.0010386-1.925829-.4606438-2.5273661-1.2482935.5105683-.9627555.4044211-2.0422731.4044211-2.0422731s4.24589-1.16761975 2.7598285 2.1229451z" fill="#000" opacity=".1"/><circle cx="52.914405" cy="10.561804" fill="#f8bdc5" r="3.184418"/><path d="m50.1110561 24.3429018c-.0069503.0470636-.0289163.0906233-.0626269.1241923-.0552068.0641177-.1012862.1355586-.13693.2122945-1.8883596-.0827949-6.0206721-1.8161795-6.83376-2.163281.1061472-.2982738.1772659-.4861544.1772659-.4861544l5.5196571.5307363s1.4308649 1.2482916 1.3363939 1.7822123z" fill="#000" opacity=".1"/><path d="m54.0491191 19.9027623-.4978306.6368835c-1.0529807 1.3533774-3.2417371 1.8045033-3.2417371 1.8045033l-1.388406-2.1356827-.2929664-2.5942389.0934096-2.5411652c.2961508 1.3799143 1.1240994 4.2586278 2.3883131 4.5112582 2.1133918.424589 1.9616012-2.6037921 1.8575769-3.8743747-.0158544-.1962066.0020976-.3936787.0530737-.5838099l.424589.3184418.038213.058381c1.0115833 1.5709793.7844282 3.4412939.5657648 4.3998036z" fill="#000" opacity=".1"/><path d="m48.4562204 13.5339272h-1.0614725s1.0614725 6.7934241-3.9274483 4.8827735c0 0 .424589 1.5922088-.5307363 3.8213011 0 0 5.0950681 2.2290923 7.1118659 2.2290923l.6368835-.6368835s1.8045033-.7430308 2.0167978-2.3352396l.9553253-.9553252s1.0614725-2.8659758-.424589-5.0950681l-.4245891-.3184418c-.0510593.1901163-.0690126.3876029-.0530736.5838099.1061473 1.273767.2558149 4.2968408-1.8575769 3.8743747-2.6536813-.5307362-2.4413868-6.0503933-2.4413868-6.0503933z" fill="#eb6576"/><path d="m41.2382073 32.852727 1.698356 1.273767s2.7598286.849178 4.9889209-2.2290923c0 0-1.3799143-.3184417-1.1676198-1.0614725s-5.5196571 2.0167978-5.5196571 2.0167978z" fill="#5e52ad"/><path d="m41.2382073 32.852727 1.698356 1.273767s2.7598286.849178 4.9889209-2.2290923c0 0-1.3799143-.3184417-1.1676198-1.0614725s-5.5196571 2.0167978-5.5196571 2.0167978z" fill="#000" opacity=".05"/><path d="m50.1110561 24.4490491c-.0069503.0470635-.0289163.0906233-.0626269.1241923-.424589.424589-1.5922088 4.4581845-1.5922088 4.4581845l-5.2012153-1.9106505-.0753646-.0191065c.4030368-.2546662.8295806-.4700708 1.2737671-.6432524.3619621-.1401143.7260472-.2887205 1.0413045-.4309578.2554692-.1092929.5008958-.2407081.7334775-.3927448.444757-.3184418 2.1526663-.8279486 3.8828665-1.1856648z" fill="#000" opacity=".1"/><path d="m62.1492159 39.5400038-1.5922088.4245891s-.03609-.1061473-.1061472-.2908435c-.3396712-.8640386-1.4712009-3.4614619-3.3967121-5.1226664-2.3352395-2.0167978-3.6090065-4.8827736-3.396712-5.6258043.2122945-.7430308-4.6704791 2.2290923-4.6704791 2.2290923s-3.5400109 2.2025554-5.8794963 2.2057399c-.3495638.0099078-.6972498-.0544919-1.0200751-.1889422-.9022516-.4065439-1.2673982-1.118792-1.3894675-1.8045032-.1461315-.8776736.0851615-1.7762466.6368835-2.4742925.8088489-1.04565 1.8879123-1.8505431 3.1207292-2.3278092.3619621-.1401144.7260472-.2887205 1.0413045-.4309578.2554692-.109293.5008958-.2407081.7334776-.3927449.7430307-.5307362 4.9889208-1.5922088 7.0057186-1.5922088h1.698356s1.4478485.0849178 1.9021588 2.086855c.1637666.6963637.4170915 1.3685668.7536454 1.9998142l2.7545212 5.254289s1.4138814 2.5061366 2.6908329 3.5676091c.364085.3035812.7175554.4893389 1.0243209.4659865 1.3799143-.1061473-1.9106505 2.0167977-1.9106505 2.0167977z" fill="#f8bdc5"/><path d="m57.1772786 8.97171829c.2149906-.38821109.1834557-.86621375-.0806719-1.22281634-.3566547-.46386349-1.0009686-.57001074-1.5094139-.86085421-.4617405-.26430666-.810965-.68571125-1.2397999-.99990712-.810965-.59548608-1.8448392-.77593641-2.837316-.9383417-.424589-.07005719-.8576698-.14011437-1.2843818-.08173339-.5402895.07324161-1.0370586.34816299-1.4605862.69101861-.1502748.10996296-.2757635.25027891-.3683309.41185134-.157098.30994998-.0881023.68146536-.1157005 1.0275054-.0679343.84387065-.7196784 1.53064337-1.4382953 1.9775233-.4415726.27492138-.927727.49358472-1.2949965.86191568-.3672695.36833094-.5891172.95001794-.3577162 1.41494284.1231308.2462617.3640851.4521873.3651465.7281702-.0070022.1223583-.0410816.241636-.0997784.3492244-.2513663.534656-.5940482 1.0213792-1.0126448 1.4382953-.3757612.3736383-.8247641.7090636-1.0200751 1.2026484-.1878806.4744782-.1061472 1.0158292.0668728 1.4966762.0806719.2292781.1815118.4585561.1857577.7005719.0116762.5891172-.5307363 1.0413045-1.0773946 1.2620908-.3449786.1390529-.7430308.2452001-.9500179.5519657s-.1602824.752584.0509507 1.0614725c.211233.3088885.5519657.5158757.9022516.6570515.6502686.273897 1.3710871.3326634 2.0571338.1677127.6881312-.1719123 1.2719508-.6258657 1.6081308-1.2504147.3184418-.6198999.3396712-1.3799142.7812438-1.9212652.7780594-.945772 2.4190959-.7069407 3.2311223-1.6251144.6517442-.7377234.4744783-1.855454.424589-2.8383776-.0288307-.5475791-.0060857-1.0966563.0679343-1.639975.0530736-.386376.1507291-.8014117.4543102-1.0455504.2452002-.1974339.5763796-.2420158.8884525-.2802288.6517441-.0817334 1.4022052-.2398928 1.698356-.82688706.1231309-.24413868.1602824-.55196571.3821302-.71118659.3067655-.22078628.7366619 0 1.004153.26536813.2950893.29402789.5424124.65599002.9914153.58274841.3810686-.05944246.7886741-.26006076.9871694-.6061008z" fill="#000" opacity=".1"/><path d="m57.0626396 8.85707926c.214684-.38841534.1827335-.86642759-.0817334-1.22281634-.3566548-.46386349-1.0009686-.57001075-1.5094139-.86085422-.4617406-.26430665-.810965-.68571124-1.2397999-.99990711-.810965-.59548608-1.8448392-.77593641-2.837316-.9383417-.4245891-.07005719-.8576698-.14011438-1.2843818-.08173339-.5402895.07324161-1.0370586.34816299-1.4605862.69101861-.1502748.10996296-.2757635.25027891-.3683309.41185134-.157098.30994997-.0881023.68146535-.1157005 1.0275054-.0679343.84387065-.7196784 1.53064337-1.4382953 1.9775233-.4415726.27492138-.927727.49358472-1.2949965.86191568-.3672695.36833097-.5891172.95001787-.3577162 1.41494287.1231308.2462616.3640851.4521873.3651465.7281701-.0070022.1223583-.0410816.2416361-.0997784.3492245-.2513663.534656-.5940482 1.0213792-1.0126448 1.4382953-.3757612.3736383-.8247641.7090636-1.0200751 1.2026483-.1878806.4744782-.1061472 1.0158292.0668728 1.4966763.0806719.229278.1815118.4585561.1857577.7005718.0116762.5891173-.5307363 1.0413046-1.0773946 1.2620909-.3449786.1390529-.7430308.2452001-.9500179.5519657-.2069871.3067655-.1602824.752584.0509507 1.0614725.211233.3088885.5519657.5158756.9022516.6570515.6502686.2738969 1.3710871.3326633 2.0571338.1677126.6881312-.1719122 1.2719508-.6258657 1.6081308-1.2504146.3184418-.6198999.3396712-1.3799143.7812438-1.9212653.7780593-.945772 2.4190959-.7069406 3.2311223-1.6251144.6517442-.7377234.4744782-1.8554539.424589-2.8383775-.0288307-.5475792-.0060857-1.0966563.0679343-1.639975.0530736-.386376.1507291-.8014118.4543102-1.0455505.2452002-.1974338.5763796-.2420157.8884525-.2802287.6517441-.0817334 1.4022052-.23989279 1.698356-.82688709.1231309-.24413868.1602824-.55196571.3821302-.71118659.3067655-.22078628.7366619 0 1.004153.26536813.2950893.29402789.5424124.65599002.9914153.58274841.3810686-.06050393.7897355-.26112224.9882309-.6061008z" fill="#6e464e"/><path d="m46.0679073 21.4418974s1.1676197.9553253 2.6536813.849178" fill="#000" opacity=".1"/><path d="m64.3167428 37.5423126c-.6092852.5986705-1.9552324 1.466955-1.9552324 1.466955l-1.5922088.424589s-1.1676197-3.3967121-3.5028593-5.4135098c-2.3352395-2.0167978-3.6090065-4.8827736-3.396712-5.6258044.2122945-.7430307-4.6704791 2.2290923-4.6704791 2.2290923s-3.5400109 2.2025555-5.8794963 2.2057399c-.3495638.0099079-.6972498-.0544918-1.0200751-.1889421-.9022516-.406544-1.2673982-1.118792-1.3894675-1.8045033-.0823958-.4712374-.0525762-.9552602.0870407-1.4128199-.3081699.5981626-.4132423 1.2803877-.2993352 1.9435562.1220693.6857112.4872159 1.3979593 1.3894675 1.8045032.3228253.1344503.6705113.19885 1.0200751.1889422 2.3352395 0 5.8794963-2.2057399 5.8794963-2.2057399s4.8827736-2.9721231 4.6704791-2.2290923c-.2122945.7430307 1.0614725 3.6090065 3.396712 5.6258043 2.3352396 2.0167978 3.5028593 5.4135099 3.5028593 5.4135099l1.5922088-.4245891s2.7481524-1.7737205 2.1675269-1.9976912z" fill="#000" opacity=".05"/><path d="m45.5902446 26.1654501-.1804503.0838564c-1.3172331.6049166-2.3962614 1.6301802-3.0676556 2.9148035-1.4223731 2.7683203.4574947 4.0155505.7653217 4.1960009-.3495638.0099078-.6972498-.0544919-1.0200751-.1889422-.9022516-.4065439-1.2673982-1.118792-1.3894675-1.8045032-.1461315-.8776736.0851615-1.7762466.6368835-2.4742925.8088489-1.04565 1.8879123-1.8505431 3.1207292-2.3278092.3619621-.1401144.7260472-.2887205 1.0413045-.4309578z" fill="#000" opacity=".1"/><path d="m45.3779501 26.1654501s-2.2290923-.7918585-3.7151538-.3959292c0 0-.9553253.8205182-1.698356 1.563549-.6050393.6050393-2.122945 6.7934241 2.972123 6.0503933 0 0-2.3522231-1.2122016-.8067191-4.2193532.6713291-1.2846724 1.7503768-2.3099544 3.0676556-2.9148035z" fill="#5e52ad"/><path d="m62.1492159 39.5400038-1.5922088.4245891s-.03609-.1061473-.1061472-.2908435c.3704539-.0976555.849178-.3184418.849178-.7706291 0 0 1.215386-1.1347141 1.7355076-1.8459007.364085.3035812.7175554.4893389 1.0243209.4659865 1.3799143-.1061473-1.9106505 2.0167977-1.9106505 2.0167977z" fill="#000" opacity=".1"/><path d="m61.4061851 39.0092676s1.5922088-1.4860615 1.9106506-2.122945c0 0 3.0782703 1.8045032 6.0503933.2122945 0 0 2.7598286-.2122945.424589 2.2290922-2.3352395 2.4413868-8.5979274 3.3967121-8.5979274 3.3967121s-1.698356 0-1.0614725-2.8659758c0 0 1.273767-.1061472 1.273767-.849178z" fill="#ffd97b"/><path d="m70.8808888 76.148068v-1.446787l29.6458662-8.3145142 5.302055-.6029164v1.3257791l-29.5248581 10.6041105z" fill="#dfe5ee"/><path d="m70.8808888 76.148068v-1.446787l29.6458662-8.3145142 5.302055-.6029164v1.3257791l-29.5248581 10.6041105z" fill="#000" opacity=".05"/><path d="m70.8808888 74.701281 29.6458662-9.7613013 5.182109.8438707-29.4049121 10.484164z" fill="#dfe5ee"/><path d="m75.460081 52.648128h1.928696v22.415115h-1.928696z" fill="#dfe5ee"/><path d="m98.598059 47.466019h1.928696v19.64361h-1.928696z" fill="#dfe5ee"/><path d="m105.346901 41.3200933v6.0259794l-24.0731347 5.3774198-2.8479308.6368835-7.0630381 1.5773482-2.048642-.6029164v-6.9887351l10.9225522-2.082609 2.7194926-.5179986 19.8601508-3.7862725z" fill="#dfe5ee"/><path d="m105.346901 41.3200933v6.0259794l-24.0731347 5.3774198-2.8479308.6368835-7.0630381 1.5773482-2.048642-.6029164v-6.9887351l10.9225522-2.082609 2.7194926-.5179986 19.8601508-3.7862725z" fill="#000" opacity=".05"/><path d="m77.3887768 52.648128v1.1846033l-1.9286955.4309578v-1.6155611z" fill="#000" opacity=".05"/><path d="m100.526755 47.4660191v1.1984025l-1.9286958.4298964v-1.6282989z" fill="#000" opacity=".05"/><path d="m105.346901 41.3200933v6.0259794l-9.7740385 2.183449-2.8426234.6347606-11.4564728 2.5592102-2.8479308.6368835-7.0630381 1.5773482.1210078-6.8687887 9.8154364-1.9562938 2.7460294-.5466584h.0010615l11.220826-2.2365226 2.740722-.5466583z" fill="#dfe5ee"/><path d="m84.0463325 45.5659833-2.7725662 7.1575092-2.8479308.6368835 2.8734061-7.2477343-1.062534-.849178 2.7194926-.5179986 1.0890708.8205182z" fill="#6c63ff"/><path d="m98.1458719 42.8868267-2.5730094 6.642695-2.8426234.6347606 2.6685419-6.7307973-.1316225-.1040243-.92985-.7451537 2.7184311-.5179986.9521409.716494.1369299.1040243z" fill="#6c63ff"/><path d="m75.8825473 74.6715598 1.9276341-.4521873v.4521873l-1.9276341.4521873z" fill="#000" opacity=".05"/><path d="m98.8995174 66.7179462 1.9276336-.4521873v.4521873l-1.9276336.4511258z" fill="#000" opacity=".05"/></g></g></g></svg>